{
	"asset":{
		"generator":"Khronos glTF Blender I/O v5.0.21",
		"version":"2.0"
	},
	"scene":0,
	"scenes":[
		{
			"name":"Scene",
			"nodes":[
				3,
				4,
				10
			]
		}
	],
	"nodes":[
		{
			"name":"venus_BezierCircle_7",
			"rotation":[
				0,
				0.013900404796004295,
				0,
				0.9999033808708191
			],
			"scale":[
				12.234904289245605,
				12.234902381896973,
				12.234904289245605
			]
		},
		{
			"children":[
				0
			],
			"name":"GLTF_SceneRootNode.001",
			"rotation":[
				0.70710688829422,
				0,
				0,
				0.7071066498756409
			]
		},
		{
			"children":[
				1
			],
			"name":"root.001"
		},
		{
			"children":[
				2
			],
			"name":"Sketchfab_model.001",
			"rotation":[
				-0.70710688829422,
				0,
				0,
				0.7071066498756409
			],
			"translation":[
				0,
				0,
				-11.89611530303955
			]
		},
		{
			"name":"uranus_22",
			"rotation":[
				0,
				0,
				0.70710688829422,
				0.7071066498756409
			],
			"scale":[
				0.019719356670975685,
				0.019719356670975685,
				0.019719356670975685
			],
			"translation":[
				0,
				0,
				1.000000238418579
			]
		},
		{
			"mesh":0,
			"name":"Object_28",
			"translation":[
				0.21427178382873535,
				-0.0003916551358997822,
				-14.928008079528809
			]
		},
		{
			"children":[
				5
			],
			"name":"neptune_25",
			"rotation":[
				0,
				0,
				0.7071066498756409,
				0.7071069478988647
			],
			"scale":[
				0.023892279714345932,
				0.023892279714345932,
				0.023892279714345932
			],
			"translation":[
				0,
				0,
				1.0000005960464478
			]
		},
		{
			"children":[
				6
			],
			"name":"neptune_BezierCircle_27",
			"scale":[
				49.92729949951172,
				49.92729949951172,
				49.92729949951172
			]
		},
		{
			"children":[
				7
			],
			"name":"GLTF_SceneRootNode",
			"rotation":[
				0.70710688829422,
				0,
				0,
				0.7071066498756409
			]
		},
		{
			"children":[
				8
			],
			"name":"root"
		},
		{
			"children":[
				9
			],
			"name":"Sketchfab_model",
			"rotation":[
				-0.70710688829422,
				0,
				0,
				0.7071066498756409
			],
			"translation":[
				0,
				0,
				-32.191776275634766
			]
		}
	],
	"animations":[
		{
			"channels":[
				{
					"sampler":0,
					"target":{
						"node":0,
						"path":"rotation"
					}
				},
				{
					"sampler":1,
					"target":{
						"node":0,
						"path":"scale"
					}
				}
			],
			"name":"Animation",
			"samplers":[
				{
					"input":4,
					"interpolation":"LINEAR",
					"output":5
				},
				{
					"input":6,
					"interpolation":"LINEAR",
					"output":7
				}
			]
		},
		{
			"channels":[
				{
					"sampler":0,
					"target":{
						"node":7,
						"path":"rotation"
					}
				},
				{
					"sampler":1,
					"target":{
						"node":7,
						"path":"scale"
					}
				}
			],
			"name":"Animation.001",
			"samplers":[
				{
					"input":4,
					"interpolation":"LINEAR",
					"output":8
				},
				{
					"input":6,
					"interpolation":"STEP",
					"output":9
				}
			]
		}
	],
	"materials":[
		{
			"doubleSided":true,
			"name":"neptune",
			"pbrMetallicRoughness":{
				"baseColorTexture":{
					"index":0
				},
				"metallicFactor":0,
				"roughnessFactor":0.5
			}
		}
	],
	"meshes":[
		{
			"name":"Object_8",
			"primitives":[
				{
					"attributes":{
						"POSITION":0,
						"NORMAL":1,
						"TEXCOORD_0":2
					},
					"indices":3,
					"material":0
				}
			]
		}
	],
	"textures":[
		{
			"sampler":0,
			"source":0
		}
	],
	"images":[
		{
			"mimeType":"image/jpeg",
			"name":"neptune_baseColor",
			"uri":"neptune_baseColor.jpg"
		}
	],
	"accessors":[
		{
			"bufferView":0,
			"componentType":5126,
			"count":2143,
			"max":[
				0.9999998807907104,
				1,
				0.9999997615814209
			],
			"min":[
				-0.9999996423721313,
				-1,
				-1
			],
			"type":"VEC3"
		},
		{
			"bufferView":1,
			"componentType":5126,
			"count":2143,
			"type":"VEC3"
		},
		{
			"bufferView":2,
			"componentType":5126,
			"count":2143,
			"type":"VEC2"
		},
		{
			"bufferView":3,
			"componentType":5123,
			"count":11904,
			"type":"SCALAR"
		},
		{
			"bufferView":4,
			"componentType":5126,
			"count":481,
			"max":[
				20
			],
			"min":[
				0
			],
			"type":"SCALAR"
		},
		{
			"bufferView":5,
			"componentType":5126,
			"count":481,
			"type":"VEC4"
		},
		{
			"bufferView":6,
			"componentType":5126,
			"count":2,
			"max":[
				20
			],
			"min":[
				0
			],
			"type":"SCALAR"
		},
		{
			"bufferView":7,
			"componentType":5126,
			"count":2,
			"type":"VEC3"
		},
		{
			"bufferView":8,
			"componentType":5126,
			"count":481,
			"type":"VEC4"
		},
		{
			"bufferView":9,
			"componentType":5126,
			"count":2,
			"type":"VEC3"
		}
	],
	"bufferViews":[
		{
			"buffer":0,
			"byteLength":25716,
			"byteOffset":0,
			"target":34962
		},
		{
			"buffer":0,
			"byteLength":25716,
			"byteOffset":25716,
			"target":34962
		},
		{
			"buffer":0,
			"byteLength":17144,
			"byteOffset":51432,
			"target":34962
		},
		{
			"buffer":0,
			"byteLength":23808,
			"byteOffset":68576,
			"target":34963
		},
		{
			"buffer":0,
			"byteLength":1924,
			"byteOffset":92384
		},
		{
			"buffer":0,
			"byteLength":7696,
			"byteOffset":94308
		},
		{
			"buffer":0,
			"byteLength":8,
			"byteOffset":102004
		},
		{
			"buffer":0,
			"byteLength":24,
			"byteOffset":102012
		},
		{
			"buffer":0,
			"byteLength":7696,
			"byteOffset":102036
		},
		{
			"buffer":0,
			"byteLength":24,
			"byteOffset":109732
		}
	],
	"samplers":[
		{
			"magFilter":9729,
			"minFilter":9987
		}
	],
	"buffers":[
		{
			"byteLength":109756,
			"uri":"neptune.bin"
		}
	]
}
