{
	"asset":{
		"generator":"Khronos glTF Blender I/O v5.0.21",
		"version":"2.0"
	},
	"scene":0,
	"scenes":[
		{
			"name":"Scene",
			"nodes":[
				6
			]
		}
	],
	"nodes":[
		{
			"mesh":0,
			"name":"Object_22"
		},
		{
			"children":[
				0
			],
			"name":"saturn_ring_18",
			"rotation":[
				0,
				0,
				0.17437991499900818,
				0.9846785664558411
			],
			"scale":[
				1.738736867904663,
				1.738736867904663,
				1.7387367486953735
			],
			"translation":[
				0.010119438171386719,
				-0.06730850040912628,
				0
			]
		},
		{
			"children":[
				1
			],
			"name":"saturn_19",
			"scale":[
				0.05879717320203781,
				0.05879717692732811,
				0.05879717692732811
			],
			"translation":[
				0.02646838128566742,
				0.06112581863999367,
				0.06332069635391235
			]
		},
		{
			"children":[
				2
			],
			"name":"saturn_BezierCircle_21",
			"rotation":[
				0.06975647062063217,
				0,
				0,
				0.9975640773773193
			],
			"scale":[
				36.61009979248047,
				36.61009216308594,
				36.61009216308594
			]
		},
		{
			"children":[
				3
			],
			"name":"GLTF_SceneRootNode",
			"rotation":[
				0.70710688829422,
				0,
				0,
				0.7071066498756409
			]
		},
		{
			"children":[
				4
			],
			"name":"root"
		},
		{
			"children":[
				5
			],
			"name":"Sketchfab_model",
			"rotation":[
				-0.70710688829422,
				0,
				0,
				0.7071066498756409
			]
		}
	],
	"animations":[
		{
			"channels":[
				{
					"sampler":0,
					"target":{
						"node":3,
						"path":"rotation"
					}
				},
				{
					"sampler":1,
					"target":{
						"node":3,
						"path":"scale"
					}
				}
			],
			"name":"Animation",
			"samplers":[
				{
					"input":4,
					"interpolation":"LINEAR",
					"output":5
				},
				{
					"input":6,
					"interpolation":"STEP",
					"output":7
				}
			]
		}
	],
	"materials":[
		{
			"alphaMode":"BLEND",
			"doubleSided":true,
			"name":"saturn_ring",
			"pbrMetallicRoughness":{
				"baseColorFactor":[
					1,
					1,
					1,
					0.5
				],
				"baseColorTexture":{
					"index":0
				},
				"metallicFactor":0,
				"roughnessFactor":0.5
			}
		}
	],
	"meshes":[
		{
			"name":"Object_6",
			"primitives":[
				{
					"attributes":{
						"POSITION":0,
						"NORMAL":1,
						"TEXCOORD_0":2
					},
					"indices":3,
					"material":0
				}
			]
		}
	],
	"textures":[
		{
			"sampler":0,
			"source":0
		}
	],
	"images":[
		{
			"mimeType":"image/png",
			"name":"saturn_ring_baseColor",
			"uri":"saturn_ring_baseColor.png"
		}
	],
	"accessors":[
		{
			"bufferView":0,
			"componentType":5126,
			"count":8236,
			"max":[
				1.0390713214874268,
				0.004791683051735163,
				1.0390713214874268
			],
			"min":[
				-1.0390714406967163,
				0.00020831925212405622,
				-1.0390713214874268
			],
			"type":"VEC3"
		},
		{
			"bufferView":1,
			"componentType":5126,
			"count":8236,
			"type":"VEC3"
		},
		{
			"bufferView":2,
			"componentType":5126,
			"count":8236,
			"type":"VEC2"
		},
		{
			"bufferView":3,
			"componentType":5123,
			"count":12288,
			"type":"SCALAR"
		},
		{
			"bufferView":4,
			"componentType":5126,
			"count":481,
			"max":[
				20
			],
			"min":[
				0
			],
			"type":"SCALAR"
		},
		{
			"bufferView":5,
			"componentType":5126,
			"count":481,
			"type":"VEC4"
		},
		{
			"bufferView":6,
			"componentType":5126,
			"count":2,
			"max":[
				20
			],
			"min":[
				0
			],
			"type":"SCALAR"
		},
		{
			"bufferView":7,
			"componentType":5126,
			"count":2,
			"type":"VEC3"
		}
	],
	"bufferViews":[
		{
			"buffer":0,
			"byteLength":98832,
			"byteOffset":0,
			"target":34962
		},
		{
			"buffer":0,
			"byteLength":98832,
			"byteOffset":98832,
			"target":34962
		},
		{
			"buffer":0,
			"byteLength":65888,
			"byteOffset":197664,
			"target":34962
		},
		{
			"buffer":0,
			"byteLength":24576,
			"byteOffset":263552,
			"target":34963
		},
		{
			"buffer":0,
			"byteLength":1924,
			"byteOffset":288128
		},
		{
			"buffer":0,
			"byteLength":7696,
			"byteOffset":290052
		},
		{
			"buffer":0,
			"byteLength":8,
			"byteOffset":297748
		},
		{
			"buffer":0,
			"byteLength":24,
			"byteOffset":297756
		}
	],
	"samplers":[
		{
			"magFilter":9729,
			"minFilter":9987
		}
	],
	"buffers":[
		{
			"byteLength":297780,
			"uri":"saturnring.bin"
		}
	]
}
