{
	"asset":{
		"generator":"Khronos glTF Blender I/O v5.0.21",
		"version":"2.0"
	},
	"scene":0,
	"scenes":[
		{
			"name":"Scene",
			"nodes":[
				0,
				5,
				10,
				14,
				15
			]
		}
	],
	"nodes":[
		{
			"name":"erath_8",
			"rotation":[
				0.3979489207267761,
				0,
				0,
				0.9174075722694397
			],
			"scale":[
				0.06205551698803902,
				0.06205553561449051,
				0.06205553561449051
			],
			"translation":[
				0,
				0,
				0.9999999403953552
			]
		},
		{
			"name":"mars_12",
			"rotation":[
				0,
				0,
				0.7071065902709961,
				0.7071069478988647
			],
			"scale":[
				0.025481276214122772,
				0.025481274351477623,
				0.025481276214122772
			],
			"translation":[
				0,
				0,
				1.000002145767212
			]
		},
		{
			"children":[
				1
			],
			"name":"mars_BezierCircle_14",
			"scale":[
				20.451398849487305,
				20.451398849487305,
				20.451398849487305
			]
		},
		{
			"children":[
				2
			],
			"name":"GLTF_SceneRootNode",
			"rotation":[
				0.70710688829422,
				0,
				0,
				0.7071066498756409
			]
		},
		{
			"children":[
				3
			],
			"name":"root"
		},
		{
			"children":[
				4
			],
			"name":"Sketchfab_model",
			"rotation":[
				-0.70710688829422,
				0,
				0,
				0.7071066498756409
			],
			"translation":[
				0,
				0,
				-20.430801391601562
			]
		},
		{
			"name":"venus_5",
			"rotation":[
				0,
				0,
				0.7071065902709961,
				0.7071069478988647
			],
			"scale":[
				0.10163675248622894,
				0.10163673758506775,
				0.10163675248622894
			],
			"translation":[
				0,
				0,
				0.9999971389770508
			]
		},
		{
			"children":[
				6
			],
			"name":"venus_BezierCircle_7",
			"rotation":[
				0,
				0.013900404796004295,
				0,
				0.9999033808708191
			],
			"scale":[
				12.234904289245605,
				12.234902381896973,
				12.234904289245605
			]
		},
		{
			"children":[
				7
			],
			"name":"GLTF_SceneRootNode.001",
			"rotation":[
				0.70710688829422,
				0,
				0,
				0.7071066498756409
			]
		},
		{
			"children":[
				8
			],
			"name":"root.001"
		},
		{
			"children":[
				9
			],
			"name":"Sketchfab_model.001",
			"rotation":[
				-0.70710688829422,
				0,
				0,
				0.7071066498756409
			],
			"translation":[
				0,
				0,
				-11.89611530303955
			]
		},
		{
			"name":"mercury_BezierCircle_4",
			"scale":[
				9.694720268249512,
				9.694720268249512,
				9.694720268249512
			]
		},
		{
			"children":[
				11
			],
			"name":"GLTF_SceneRootNode.002",
			"rotation":[
				0.70710688829422,
				0,
				0,
				0.7071066498756409
			]
		},
		{
			"children":[
				12
			],
			"name":"root.002"
		},
		{
			"children":[
				13
			],
			"name":"Sketchfab_model.002",
			"rotation":[
				-0.70710688829422,
				0,
				0,
				0.7071066498756409
			]
		},
		{
			"mesh":0,
			"name":"Object_5",
			"translation":[
				0.46211278438568115,
				0.655157744884491,
				-0.5722447633743286
			]
		}
	],
	"animations":[
		{
			"channels":[
				{
					"sampler":0,
					"target":{
						"node":2,
						"path":"rotation"
					}
				},
				{
					"sampler":1,
					"target":{
						"node":2,
						"path":"scale"
					}
				}
			],
			"name":"Animation.001",
			"samplers":[
				{
					"input":4,
					"interpolation":"LINEAR",
					"output":5
				},
				{
					"input":6,
					"interpolation":"STEP",
					"output":7
				}
			]
		},
		{
			"channels":[
				{
					"sampler":0,
					"target":{
						"node":7,
						"path":"rotation"
					}
				},
				{
					"sampler":1,
					"target":{
						"node":7,
						"path":"scale"
					}
				}
			],
			"name":"Animation",
			"samplers":[
				{
					"input":4,
					"interpolation":"LINEAR",
					"output":8
				},
				{
					"input":6,
					"interpolation":"LINEAR",
					"output":9
				}
			]
		},
		{
			"channels":[
				{
					"sampler":0,
					"target":{
						"node":11,
						"path":"rotation"
					}
				},
				{
					"sampler":1,
					"target":{
						"node":11,
						"path":"scale"
					}
				}
			],
			"name":"Animation.002",
			"samplers":[
				{
					"input":4,
					"interpolation":"LINEAR",
					"output":10
				},
				{
					"input":6,
					"interpolation":"STEP",
					"output":11
				}
			]
		}
	],
	"materials":[
		{
			"doubleSided":true,
			"name":"mercury",
			"pbrMetallicRoughness":{
				"baseColorTexture":{
					"index":0
				},
				"metallicFactor":0,
				"roughnessFactor":0.5
			}
		}
	],
	"meshes":[
		{
			"name":"Object_0",
			"primitives":[
				{
					"attributes":{
						"POSITION":0,
						"NORMAL":1,
						"TEXCOORD_0":2
					},
					"indices":3,
					"material":0
				}
			]
		}
	],
	"textures":[
		{
			"sampler":0,
			"source":0
		}
	],
	"images":[
		{
			"mimeType":"image/jpeg",
			"name":"mercury_baseColor",
			"uri":"mercury_baseColor.jpg"
		}
	],
	"accessors":[
		{
			"bufferView":0,
			"componentType":5126,
			"count":2143,
			"max":[
				1,
				1.0000033378601074,
				0.9999890327453613
			],
			"min":[
				-1,
				-0.9999966621398926,
				-1.0000114440917969
			],
			"type":"VEC3"
		},
		{
			"bufferView":1,
			"componentType":5126,
			"count":2143,
			"type":"VEC3"
		},
		{
			"bufferView":2,
			"componentType":5126,
			"count":2143,
			"type":"VEC2"
		},
		{
			"bufferView":3,
			"componentType":5123,
			"count":11904,
			"type":"SCALAR"
		},
		{
			"bufferView":4,
			"componentType":5126,
			"count":481,
			"max":[
				20
			],
			"min":[
				0
			],
			"type":"SCALAR"
		},
		{
			"bufferView":5,
			"componentType":5126,
			"count":481,
			"type":"VEC4"
		},
		{
			"bufferView":6,
			"componentType":5126,
			"count":2,
			"max":[
				20
			],
			"min":[
				0
			],
			"type":"SCALAR"
		},
		{
			"bufferView":7,
			"componentType":5126,
			"count":2,
			"type":"VEC3"
		},
		{
			"bufferView":8,
			"componentType":5126,
			"count":481,
			"type":"VEC4"
		},
		{
			"bufferView":9,
			"componentType":5126,
			"count":2,
			"type":"VEC3"
		},
		{
			"bufferView":10,
			"componentType":5126,
			"count":481,
			"type":"VEC4"
		},
		{
			"bufferView":11,
			"componentType":5126,
			"count":2,
			"type":"VEC3"
		}
	],
	"bufferViews":[
		{
			"buffer":0,
			"byteLength":25716,
			"byteOffset":0,
			"target":34962
		},
		{
			"buffer":0,
			"byteLength":25716,
			"byteOffset":25716,
			"target":34962
		},
		{
			"buffer":0,
			"byteLength":17144,
			"byteOffset":51432,
			"target":34962
		},
		{
			"buffer":0,
			"byteLength":23808,
			"byteOffset":68576,
			"target":34963
		},
		{
			"buffer":0,
			"byteLength":1924,
			"byteOffset":92384
		},
		{
			"buffer":0,
			"byteLength":7696,
			"byteOffset":94308
		},
		{
			"buffer":0,
			"byteLength":8,
			"byteOffset":102004
		},
		{
			"buffer":0,
			"byteLength":24,
			"byteOffset":102012
		},
		{
			"buffer":0,
			"byteLength":7696,
			"byteOffset":102036
		},
		{
			"buffer":0,
			"byteLength":24,
			"byteOffset":109732
		},
		{
			"buffer":0,
			"byteLength":7696,
			"byteOffset":109756
		},
		{
			"buffer":0,
			"byteLength":24,
			"byteOffset":117452
		}
	],
	"samplers":[
		{
			"magFilter":9729,
			"minFilter":9987
		}
	],
	"buffers":[
		{
			"byteLength":117476,
			"uri":"mercury.bin"
		}
	]
}
