{
	"asset":{
		"generator":"Khronos glTF Blender I/O v5.0.21",
		"version":"2.0"
	},
	"scene":0,
	"scenes":[
		{
			"name":"Scene",
			"nodes":[
				3,
				7,
				13
			]
		}
	],
	"nodes":[
		{
			"name":"mars_BezierCircle_14",
			"scale":[
				20.451398849487305,
				20.451398849487305,
				20.451398849487305
			]
		},
		{
			"children":[
				0
			],
			"name":"GLTF_SceneRootNode",
			"rotation":[
				0.70710688829422,
				0,
				0,
				0.7071066498756409
			]
		},
		{
			"children":[
				1
			],
			"name":"root"
		},
		{
			"children":[
				2
			],
			"name":"Sketchfab_model",
			"rotation":[
				-0.70710688829422,
				0,
				0,
				0.7071066498756409
			],
			"translation":[
				0,
				0,
				-24.82710075378418
			]
		},
		{
			"name":"venus_BezierCircle_7",
			"rotation":[
				0,
				0.013900404796004295,
				0,
				0.9999033808708191
			],
			"scale":[
				12.234904289245605,
				12.234902381896973,
				12.234904289245605
			]
		},
		{
			"children":[
				4
			],
			"name":"GLTF_SceneRootNode.001",
			"rotation":[
				0.70710688829422,
				0,
				0,
				0.7071066498756409
			]
		},
		{
			"children":[
				5
			],
			"name":"root.001"
		},
		{
			"children":[
				6
			],
			"name":"Sketchfab_model.001",
			"rotation":[
				-0.70710688829422,
				0,
				0,
				0.7071066498756409
			],
			"translation":[
				0,
				0,
				-11.89611530303955
			]
		},
		{
			"mesh":0,
			"name":"Object_25",
			"translation":[
				5.699857711791992,
				-0.0446552149951458,
				-22.48514747619629
			]
		},
		{
			"children":[
				8
			],
			"name":"uranus_22",
			"rotation":[
				0,
				0,
				0.70710688829422,
				0.7071066498756409
			],
			"scale":[
				0.019719358533620834,
				0.019719356670975685,
				0.019719358533620834
			],
			"translation":[
				0,
				0,
				1.000000238418579
			]
		},
		{
			"children":[
				9
			],
			"name":"uranus_BezierCircle_24",
			"rotation":[
				0.09468601644039154,
				0,
				0,
				0.9955072402954102
			],
			"scale":[
				44.26029968261719,
				44.26030349731445,
				44.26030349731445
			]
		},
		{
			"children":[
				10
			],
			"name":"GLTF_SceneRootNode.002",
			"rotation":[
				0.70710688829422,
				0,
				0,
				0.7071066498756409
			]
		},
		{
			"children":[
				11
			],
			"name":"root.002"
		},
		{
			"children":[
				12
			],
			"name":"Sketchfab_model.002",
			"rotation":[
				-0.70710688829422,
				0,
				0,
				0.7071066498756409
			],
			"translation":[
				0,
				0,
				-25.090974807739258
			]
		}
	],
	"animations":[
		{
			"channels":[
				{
					"sampler":0,
					"target":{
						"node":0,
						"path":"rotation"
					}
				},
				{
					"sampler":1,
					"target":{
						"node":0,
						"path":"scale"
					}
				}
			],
			"name":"Animation.001",
			"samplers":[
				{
					"input":4,
					"interpolation":"LINEAR",
					"output":5
				},
				{
					"input":6,
					"interpolation":"STEP",
					"output":7
				}
			]
		},
		{
			"channels":[
				{
					"sampler":0,
					"target":{
						"node":4,
						"path":"rotation"
					}
				},
				{
					"sampler":1,
					"target":{
						"node":4,
						"path":"scale"
					}
				}
			],
			"name":"Animation",
			"samplers":[
				{
					"input":4,
					"interpolation":"LINEAR",
					"output":8
				},
				{
					"input":6,
					"interpolation":"LINEAR",
					"output":9
				}
			]
		},
		{
			"channels":[
				{
					"sampler":0,
					"target":{
						"node":10,
						"path":"rotation"
					}
				},
				{
					"sampler":1,
					"target":{
						"node":10,
						"path":"scale"
					}
				}
			],
			"name":"Animation.002",
			"samplers":[
				{
					"input":4,
					"interpolation":"LINEAR",
					"output":10
				},
				{
					"input":6,
					"interpolation":"STEP",
					"output":11
				}
			]
		}
	],
	"materials":[
		{
			"doubleSided":true,
			"name":"uranus",
			"pbrMetallicRoughness":{
				"baseColorTexture":{
					"index":0
				},
				"metallicFactor":0,
				"roughnessFactor":0.5
			}
		}
	],
	"meshes":[
		{
			"name":"Object_7",
			"primitives":[
				{
					"attributes":{
						"POSITION":0,
						"NORMAL":1,
						"TEXCOORD_0":2
					},
					"indices":3,
					"material":0
				}
			]
		}
	],
	"textures":[
		{
			"sampler":0,
			"source":0
		}
	],
	"images":[
		{
			"mimeType":"image/jpeg",
			"name":"uranus_baseColor",
			"uri":"uranus_baseColor.jpg"
		}
	],
	"accessors":[
		{
			"bufferView":0,
			"componentType":5126,
			"count":2143,
			"max":[
				0.9999998807907104,
				1,
				0.9999997615814209
			],
			"min":[
				-0.9999996423721313,
				-1,
				-1
			],
			"type":"VEC3"
		},
		{
			"bufferView":1,
			"componentType":5126,
			"count":2143,
			"type":"VEC3"
		},
		{
			"bufferView":2,
			"componentType":5126,
			"count":2143,
			"type":"VEC2"
		},
		{
			"bufferView":3,
			"componentType":5123,
			"count":11904,
			"type":"SCALAR"
		},
		{
			"bufferView":4,
			"componentType":5126,
			"count":481,
			"max":[
				20
			],
			"min":[
				0
			],
			"type":"SCALAR"
		},
		{
			"bufferView":5,
			"componentType":5126,
			"count":481,
			"type":"VEC4"
		},
		{
			"bufferView":6,
			"componentType":5126,
			"count":2,
			"max":[
				20
			],
			"min":[
				0
			],
			"type":"SCALAR"
		},
		{
			"bufferView":7,
			"componentType":5126,
			"count":2,
			"type":"VEC3"
		},
		{
			"bufferView":8,
			"componentType":5126,
			"count":481,
			"type":"VEC4"
		},
		{
			"bufferView":9,
			"componentType":5126,
			"count":2,
			"type":"VEC3"
		},
		{
			"bufferView":10,
			"componentType":5126,
			"count":481,
			"type":"VEC4"
		},
		{
			"bufferView":11,
			"componentType":5126,
			"count":2,
			"type":"VEC3"
		}
	],
	"bufferViews":[
		{
			"buffer":0,
			"byteLength":25716,
			"byteOffset":0,
			"target":34962
		},
		{
			"buffer":0,
			"byteLength":25716,
			"byteOffset":25716,
			"target":34962
		},
		{
			"buffer":0,
			"byteLength":17144,
			"byteOffset":51432,
			"target":34962
		},
		{
			"buffer":0,
			"byteLength":23808,
			"byteOffset":68576,
			"target":34963
		},
		{
			"buffer":0,
			"byteLength":1924,
			"byteOffset":92384
		},
		{
			"buffer":0,
			"byteLength":7696,
			"byteOffset":94308
		},
		{
			"buffer":0,
			"byteLength":8,
			"byteOffset":102004
		},
		{
			"buffer":0,
			"byteLength":24,
			"byteOffset":102012
		},
		{
			"buffer":0,
			"byteLength":7696,
			"byteOffset":102036
		},
		{
			"buffer":0,
			"byteLength":24,
			"byteOffset":109732
		},
		{
			"buffer":0,
			"byteLength":7696,
			"byteOffset":109756
		},
		{
			"buffer":0,
			"byteLength":24,
			"byteOffset":117452
		}
	],
	"samplers":[
		{
			"magFilter":9729,
			"minFilter":9987
		}
	],
	"buffers":[
		{
			"byteLength":117476,
			"uri":"uranus.bin"
		}
	]
}
