{
	"asset":{
		"generator":"Khronos glTF Blender I/O v5.0.21",
		"version":"2.0"
	},
	"scene":0,
	"scenes":[
		{
			"name":"Scene",
			"nodes":[
				0,
				6
			]
		}
	],
	"nodes":[
		{
			"name":"erath_8",
			"rotation":[
				0.3979489207267761,
				0,
				0,
				0.9174075722694397
			],
			"scale":[
				0.06205551698803902,
				0.06205553561449051,
				0.06205553561449051
			],
			"translation":[
				0,
				0,
				0.9999999403953552
			]
		},
		{
			"mesh":0,
			"name":"Object_17",
			"translation":[
				-2.6488099098205566,
				-1.6301124095916748,
				-9.51866626739502
			]
		},
		{
			"children":[
				1
			],
			"name":"jupiter_15",
			"scale":[
				0.09468812495470047,
				0.09468815475702286,
				0.09468815475702286
			],
			"translation":[
				0,
				0,
				0.9999989867210388
			]
		},
		{
			"children":[
				2
			],
			"name":"jupiter_BezierCircle_17",
			"rotation":[
				-0.06247606500983238,
				0,
				0,
				0.9980464577674866
			],
			"scale":[
				28.774999618530273,
				28.774999618530273,
				28.774999618530273
			]
		},
		{
			"children":[
				3
			],
			"name":"GLTF_SceneRootNode",
			"rotation":[
				0.70710688829422,
				0,
				0,
				0.7071066498756409
			]
		},
		{
			"children":[
				4
			],
			"name":"root"
		},
		{
			"children":[
				5
			],
			"name":"Sketchfab_model",
			"rotation":[
				-0.70710688829422,
				0,
				0,
				0.7071066498756409
			]
		}
	],
	"animations":[
		{
			"channels":[
				{
					"sampler":0,
					"target":{
						"node":3,
						"path":"rotation"
					}
				},
				{
					"sampler":1,
					"target":{
						"node":3,
						"path":"scale"
					}
				}
			],
			"name":"Animation.001",
			"samplers":[
				{
					"input":4,
					"interpolation":"LINEAR",
					"output":5
				},
				{
					"input":6,
					"interpolation":"LINEAR",
					"output":7
				}
			]
		}
	],
	"materials":[
		{
			"doubleSided":true,
			"name":"jupiter",
			"pbrMetallicRoughness":{
				"baseColorTexture":{
					"index":0
				},
				"metallicFactor":0,
				"roughnessFactor":0.5
			}
		}
	],
	"meshes":[
		{
			"name":"Object_4",
			"primitives":[
				{
					"attributes":{
						"POSITION":0,
						"NORMAL":1,
						"TEXCOORD_0":2
					},
					"indices":3,
					"material":0
				}
			]
		}
	],
	"textures":[
		{
			"sampler":0,
			"source":0
		}
	],
	"images":[
		{
			"mimeType":"image/jpeg",
			"name":"jupiter_baseColor",
			"uri":"jupiter_baseColor.jpg"
		}
	],
	"accessors":[
		{
			"bufferView":0,
			"componentType":5126,
			"count":2143,
			"max":[
				0.9999998807907104,
				1,
				0.9999997615814209
			],
			"min":[
				-0.9999996423721313,
				-1,
				-1
			],
			"type":"VEC3"
		},
		{
			"bufferView":1,
			"componentType":5126,
			"count":2143,
			"type":"VEC3"
		},
		{
			"bufferView":2,
			"componentType":5126,
			"count":2143,
			"type":"VEC2"
		},
		{
			"bufferView":3,
			"componentType":5123,
			"count":11904,
			"type":"SCALAR"
		},
		{
			"bufferView":4,
			"componentType":5126,
			"count":481,
			"max":[
				20
			],
			"min":[
				0
			],
			"type":"SCALAR"
		},
		{
			"bufferView":5,
			"componentType":5126,
			"count":481,
			"type":"VEC4"
		},
		{
			"bufferView":6,
			"componentType":5126,
			"count":2,
			"max":[
				20
			],
			"min":[
				0
			],
			"type":"SCALAR"
		},
		{
			"bufferView":7,
			"componentType":5126,
			"count":2,
			"type":"VEC3"
		}
	],
	"bufferViews":[
		{
			"buffer":0,
			"byteLength":25716,
			"byteOffset":0,
			"target":34962
		},
		{
			"buffer":0,
			"byteLength":25716,
			"byteOffset":25716,
			"target":34962
		},
		{
			"buffer":0,
			"byteLength":17144,
			"byteOffset":51432,
			"target":34962
		},
		{
			"buffer":0,
			"byteLength":23808,
			"byteOffset":68576,
			"target":34963
		},
		{
			"buffer":0,
			"byteLength":1924,
			"byteOffset":92384
		},
		{
			"buffer":0,
			"byteLength":7696,
			"byteOffset":94308
		},
		{
			"buffer":0,
			"byteLength":8,
			"byteOffset":102004
		},
		{
			"buffer":0,
			"byteLength":24,
			"byteOffset":102012
		}
	],
	"samplers":[
		{
			"magFilter":9729,
			"minFilter":9987
		}
	],
	"buffers":[
		{
			"byteLength":102036,
			"uri":"juipiter.bin"
		}
	]
}
